<?xml version="1.0" encoding="UTF-8"?>
<svg id="Layer_2" data-name="Layer 2" xmlns="http://www.w3.org/2000/svg" viewBox="0 0 954.56 192.73">
  <defs>
    <style>
      .cls-1 {
        fill: #fff;
      }

      .cls-2 {
        fill: #145aff;
      }
    </style>
  </defs>
  <g id="Layer_2-2" data-name="Layer 2">
    <g>
      <path class="cls-1" d="M661.56,192.73h-46.83l-78.32-118.57v118.57h-46.83V.5h46.83l78.32,119.12V.5h46.83v192.23Z"/>
      <path class="cls-1" d="M728.65,38.02v38.88h62.71v36.15h-62.71v42.17h70.92v37.52h-117.75V.5h117.75v37.52h-70.92Z"/>
      <path class="cls-1" d="M954.56.5v37.52h-50.93v154.72h-46.83V38.02h-50.93V.5h148.69Z"/>
    </g>
    <g>
      <path class="cls-2" d="M0,48.62L36.62,0h162.95c16.68,0,32.33,8.08,42,21.68l71.31,100.33c1.22,1.72,3.79,1.71,5-.02L403.38,0h69.23l-120.53,173.84c-17.25,24.88-53.91,25.26-71.67.74l-81.51-112.53c-6.2-8.56-16.14-13.63-26.71-13.62l-172.19.19Z"/>
      <rect class="cls-2" x="87" y="64.92" width="61.7" height="127.81"/>
    </g>
  </g>
</svg>